<svg width="28" height="26" viewBox="0 0 28 26" fill="none" xmlns="http://www.w3.org/2000/svg">
<path fill-rule="evenodd" clip-rule="evenodd" d="M25.5924 2.29086C24.0651 0.76362 22.0346 0 20.0041 0C18.0082 0 15.9951 0.76362 14.4678 2.29086L1.76396 14.9947C0.670595 16.0881 0.115234 17.5286 0.115234 18.9517C0.115234 20.3748 0.65324 21.8326 1.76396 22.926C2.83997 24.002 4.28044 24.54 5.7209 24.54C7.16137 24.54 8.60183 24.002 9.71255 22.8913L22.3991 10.1874C23.718 8.85105 23.718 6.7511 22.4164 5.44947C21.1148 4.14785 18.9628 4.13049 17.6438 5.44947L7.1093 16.0013C6.69278 16.4352 6.69278 17.1294 7.12666 17.5633C7.56053 17.9971 8.25473 17.9971 8.70596 17.5806L19.2404 7.02878C19.6743 6.5949 20.4032 6.5949 20.8198 7.01142C21.2536 7.4453 21.2536 8.17421 20.8198 8.60808L8.13325 21.3119C6.83162 22.6136 4.59283 22.5962 3.34327 21.3293C2.04164 20.0277 2.07635 17.8236 3.36062 16.5393L16.0818 3.85281C18.2339 1.70079 21.8958 1.66608 24.0304 3.80075C26.1825 5.95277 26.1825 9.63203 24.0304 11.784L11.6737 24.1582C11.2571 24.592 11.2571 25.2689 11.691 25.6854C12.1075 26.1019 12.7844 26.1019 13.2183 25.7028V25.7201L25.5924 13.346C27.1196 11.8535 27.8832 9.85764 27.8832 7.84446C27.8832 5.83128 27.1196 3.8181 25.5924 2.29086Z" fill="white"/>
</svg>
