<svg width="469" height="42" viewBox="0 0 469 42" fill="none" xmlns="http://www.w3.org/2000/svg">
<path d="M12.3484 41.1612H0L8.23224 0H47.8646C48.9622 0 49.9619 0.235207 50.8635 0.705622C51.8043 1.13683 52.5688 1.74445 53.1568 2.52848C53.784 3.2733 54.2348 4.13572 54.5092 5.11575C54.7836 6.09578 54.8228 7.11501 54.6268 8.17344L51.4515 23.9911C51.1379 25.6376 50.3539 26.9704 49.0995 27.9896C47.845 29.0089 46.3946 29.5185 44.7481 29.5185H42.102L47.3354 41.1612H34.987L29.7537 29.5185H14.7004L12.3484 41.1612ZM16.5821 19.875H38.8091C39.5148 19.875 39.9656 19.5222 40.1616 18.8166L41.6316 11.2311C41.71 10.7999 41.612 10.4275 41.3376 10.1139C41.1024 9.76109 40.7692 9.58469 40.338 9.58469H11.4075L18.2285 11.6427L16.5821 19.875Z" fill="white"/>
<path d="M54.314 32.929L60.8998 0H99.3561L97.4156 9.58469H64.0751L70.9549 11.6427L70.0728 16.1117H92.0647L90.3006 25.0495H68.25L67.3092 29.9301C67.2307 30.3613 67.3288 30.7533 67.6032 31.1061C67.8776 31.4197 68.2304 31.5765 68.6616 31.5765H93.0055L91.1239 41.1612H61.0762C59.9785 41.1612 58.9593 40.9456 58.0185 40.5144C57.1169 40.044 56.3524 39.4364 55.7252 38.6915C55.1372 37.9075 54.706 37.0255 54.4316 36.0455C54.1572 35.0262 54.118 33.9874 54.314 32.929Z" fill="white"/>
<path d="M111.506 0H138.672C139.848 0 140.926 0.254808 141.906 0.764423C142.925 1.27404 143.788 1.94046 144.493 2.76368C145.199 3.58691 145.689 4.54734 145.963 5.64497C146.277 6.7034 146.316 7.82063 146.081 8.99667L145.375 12.3484H133.027L133.262 11.2311C133.341 10.7999 133.243 10.4275 132.968 10.1139C132.694 9.76109 132.341 9.58469 131.91 9.58469H108.507L115.328 11.6427L114.857 14.1124C114.779 14.5436 114.877 14.9356 115.151 15.2885C115.426 15.6021 115.778 15.7589 116.21 15.7589H125.618C126.912 15.7589 128.166 15.7589 129.381 15.7589C130.597 15.7589 131.675 15.7589 132.615 15.7589C133.556 15.7589 134.321 15.7785 134.909 15.8177C135.497 15.8177 135.791 15.8177 135.791 15.8177C136.928 15.8961 137.947 16.2097 138.848 16.7585C139.789 17.2681 140.573 17.9345 141.2 18.7578C141.867 19.581 142.318 20.5218 142.553 21.5802C142.827 22.5995 142.847 23.6775 142.612 24.8143L140.554 35.1046C140.201 36.8687 139.319 38.3191 137.908 39.456C136.535 40.5928 134.948 41.1612 133.145 41.1612H106.272C105.096 41.1612 103.999 40.9064 102.979 40.3968C101.96 39.8872 101.117 39.2208 100.451 38.3975C99.7844 37.5743 99.2944 36.6139 98.9808 35.5162C98.7064 34.4186 98.6868 33.2818 98.922 32.1057L99.5688 28.8129H111.917L111.682 29.9301C111.604 30.3613 111.702 30.7533 111.976 31.1061C112.25 31.4197 112.603 31.5765 113.034 31.5765H136.202L129.322 29.5185L129.969 26.3432C130.048 25.912 129.95 25.5396 129.675 25.2259C129.401 24.8731 129.048 24.6967 128.617 24.6967H109.565C108.389 24.6967 107.291 24.4419 106.272 23.9323C105.253 23.4227 104.41 22.7563 103.744 21.933C103.077 21.1098 102.587 20.1494 102.274 19.0518C101.999 17.9541 101.98 16.8173 102.215 15.6413L104.097 6.05658C104.449 4.29253 105.312 2.84209 106.684 1.70525C108.095 0.568418 109.702 0 111.506 0Z" fill="white"/>
<path d="M145.767 32.929L152.353 0H190.809L188.868 9.58469H155.528L162.408 11.6427L161.526 16.1117H183.517L181.753 25.0495H159.703L158.762 29.9301C158.684 30.3613 158.782 30.7533 159.056 31.1061C159.33 31.4197 159.683 31.5765 160.114 31.5765H184.458L182.577 41.1612H152.529C151.431 41.1612 150.412 40.9456 149.471 40.5144C148.57 40.044 147.805 39.4364 147.178 38.6915C146.59 37.9075 146.159 37.0255 145.884 36.0455C145.61 35.0262 145.571 33.9874 145.767 32.929Z" fill="white"/>
<path d="M202.547 41.1612H190.198L198.431 0H238.063C239.161 0 240.16 0.235207 241.062 0.705622C242.003 1.13683 242.767 1.74445 243.355 2.52848C243.982 3.2733 244.433 4.13572 244.708 5.11575C244.982 6.09578 245.021 7.11501 244.825 8.17344L241.65 23.9911C241.336 25.6376 240.552 26.9704 239.298 27.9896C238.043 29.0089 236.593 29.5185 234.946 29.5185H232.3L237.534 41.1612H225.185L219.952 29.5185H204.899L202.547 41.1612ZM206.78 19.875H229.008C229.713 19.875 230.164 19.5222 230.36 18.8166L231.83 11.2311C231.908 10.7999 231.81 10.4275 231.536 10.1139C231.301 9.76109 230.968 9.58469 230.536 9.58469H201.606L208.427 11.6427L206.78 19.875Z" fill="white"/>
<path d="M258.973 31.5765H266.264L282.023 0H296.43L275.143 41.1612H254.563L247.036 0H260.09L265.853 29.5185L258.973 31.5765Z" fill="white"/>
<path d="M306.377 8.58506L313.257 10.6431L307.142 41.1612H294.793L303.026 0H324.312L330.839 32.5762L337.307 0H349.655L341.423 41.1612H320.196L313.669 8.58506H306.377Z" fill="url(#paint0_linear_394_21389)"/>
<path d="M392.618 35.6339C392.304 37.2803 391.501 38.6131 390.207 39.6324C388.953 40.6516 387.502 41.1612 385.856 41.1612H355.984C354.887 41.1612 353.868 40.9456 352.927 40.5144C352.025 40.044 351.261 39.4364 350.634 38.6915C350.045 37.9075 349.614 37.0255 349.34 36.0455C349.065 35.0262 349.026 33.9874 349.222 32.929L354.75 5.52737C355.063 3.88092 355.847 2.54808 357.102 1.52885C358.356 0.509615 359.807 0 361.453 0H391.383C392.442 0 393.422 0.235207 394.323 0.705622C395.264 1.13683 396.048 1.74445 396.675 2.52848C397.302 3.2733 397.753 4.13572 398.028 5.11575C398.302 6.09578 398.322 7.11501 398.087 8.17344L392.618 35.6339ZM365.863 11.6427L362.217 29.9301C362.139 30.3613 362.237 30.7533 362.511 31.1061C362.786 31.4197 363.139 31.5765 363.57 31.5765H388.325L381.504 29.5185L385.15 11.2311C385.229 10.7999 385.131 10.4275 384.856 10.1139C384.582 9.76109 384.229 9.58469 383.798 9.58469H358.983L365.863 11.6427Z" fill="url(#paint1_linear_394_21389)"/>
<path d="M456.358 0H469L460.121 41.1612H438.482L433.366 15.7589L419.959 41.1612H397.674L405.2 0H417.901L412.786 30.8709L405.553 32.929H412.433L429.603 0H441.246L448.772 32.929L456.358 0Z" fill="url(#paint2_linear_394_21389)"/>
<defs>
<linearGradient id="paint0_linear_394_21389" x1="305.769" y1="-29.4008" x2="478.148" y2="-27.1296" gradientUnits="userSpaceOnUse">
<stop stop-color="#A28DF5"/>
<stop offset="0.161458" stop-color="#9B84F9"/>
<stop offset="0.338542" stop-color="#927BF3"/>
<stop offset="1" stop-color="#4628C0"/>
</linearGradient>
<linearGradient id="paint1_linear_394_21389" x1="305.769" y1="-29.4008" x2="478.148" y2="-27.1296" gradientUnits="userSpaceOnUse">
<stop stop-color="#A28DF5"/>
<stop offset="0.161458" stop-color="#9B84F9"/>
<stop offset="0.338542" stop-color="#927BF3"/>
<stop offset="1" stop-color="#4628C0"/>
</linearGradient>
<linearGradient id="paint2_linear_394_21389" x1="305.769" y1="-29.4008" x2="478.148" y2="-27.1296" gradientUnits="userSpaceOnUse">
<stop stop-color="#A28DF5"/>
<stop offset="0.161458" stop-color="#9B84F9"/>
<stop offset="0.338542" stop-color="#927BF3"/>
<stop offset="1" stop-color="#4628C0"/>
</linearGradient>
</defs>
</svg>
